<?xml version="1.0" encoding="utf-8"?>
<!-- Generator: Adobe Illustrator 22.0.1, SVG Export Plug-In . SVG Version: 6.00 Build 0)  -->
<svg version="1.1"
	 id="svg2" inkscape:version="0.91 r13725" sodipodi:docname="radio-france.svg" xmlns:cc="http://creativecommons.org/ns#" xmlns:dc="http://purl.org/dc/elements/1.1/" xmlns:inkscape="http://www.inkscape.org/namespaces/inkscape" xmlns:rdf="http://www.w3.org/1999/02/22-rdf-syntax-ns#" xmlns:sodipodi="http://sodipodi.sourceforge.net/DTD/sodipodi-0.dtd" xmlns:svg="http://www.w3.org/2000/svg"
	 xmlns="http://www.w3.org/2000/svg" xmlns:xlink="http://www.w3.org/1999/xlink" x="0px" y="0px" viewBox="0 0 501.5 95"
	 style="enable-background:new 0 0 501.5 95;" xml:space="preserve">
<style type="text/css">
	.st0{fill:#005DCB;}
</style>
<sodipodi:namedview  bordercolor="#666666" borderopacity="1.0" fit-margin-bottom="0" fit-margin-left="0" fit-margin-right="0" fit-margin-top="0" id="base" inkscape:current-layer="layer1" inkscape:cx="274.57525" inkscape:cy="17.479745" inkscape:document-units="px" inkscape:object-nodes="true" inkscape:pageopacity="0.0" inkscape:pageshadow="2" inkscape:snap-bbox="true" inkscape:snap-smooth-nodes="true" inkscape:window-height="1023" inkscape:window-maximized="1" inkscape:window-width="1920" inkscape:window-x="0" inkscape:window-y="20" inkscape:zoom="1.979899" pagecolor="#ffffff" showgrid="false" units="px">
	</sodipodi:namedview>
<g id="layer1" transform="translate(-97.820747,-704.41948)" inkscape:groupmode="layer" inkscape:label="Calque 1">
	
		<path id="path4347" inkscape:connector-curvature="0" sodipodi:nodetypes="cccccccsssccccccsccccccscccssccscsccsscccsscsssssscccccscssssssscssscscssc" class="st0" d="
		M241.5,705v15.2h15.8V705H241.5z M217.2,706.1V731c-3.4-5-7.5-6.9-13.6-6.9c-15.9,0-20,16-20,29c0,12.7,4.3,27.7,19.6,27.7
		c7,0,11.5-3.8,14.5-9.6h0.2v8.5h15V706L217.2,706.1L217.2,706.1z M123.2,724.1c-6,0.2-8.9,5.9-10.5,11.3h-0.2v-10.2H97.8v54.5h15.8
		v-20.8c0-9.7,1.5-19.4,13.5-18.8v-15.8l-2.7-0.2C124,724.1,123.6,724.1,123.2,724.1z M156,724.1c-11.5,0-24.4,3.9-26,17.1l14.9,1.4
		c0-5.4,4.4-7.9,9.4-7.9c2.4,0,5,0.8,6.4,2.6c1.6,2,1.4,4.8,1.4,7.2v1.3c-6.7,0.6-15.4,1.1-21.6,3.4c-7.2,2.7-12.2,8.2-12.2,16.2
		c0,10.3,7.5,15.5,17.2,15.5c8.2,0,12.9-3.1,17.4-9.6c-0.1,2.8,0.1,5.7,0.8,8.5h15.7c-0.9-2.7-1.1-5.4-1.1-8.2v-25.4
		c0-6.5,0.5-12.6-5-17.1C168.9,725.5,161.6,724.1,156,724.1L156,724.1z M289.5,724.1c-16.6,0-25.9,12.3-25.9,28.2
		c0,15.8,9.1,28.5,25.9,28.5c16.1,0,26.3-12.3,26.3-27.9C315.8,736.8,306.5,724.1,289.5,724.1z M241.5,725.3v54.5h15.8v-54.5H241.5z
		 M289.6,734.5c3.7,0,6.2,1.4,7.5,4.9c1.5,4.1,1.7,9.2,1.7,13.5c0,6.5-0.4,17.3-9.3,17.3c-9,0-8.9-13.3-8.9-19.5
		C280.6,744.5,281.1,734.5,289.6,734.5z M209.6,735.3c7.2,0,7.6,9,7.6,14.3v7.5c0,2.7-0.1,5.6-1.4,8.1c-1.3,2.5-4,4.4-6.9,4.4
		c-7.8,0-8.7-10-8.7-15.9C200.2,747,200.6,735.3,209.6,735.3z M162.2,753.6v2.1c0,3.9,0.1,7.1-2.1,10.5c-1.8,2.8-4.7,4.5-7.9,4.5
		c-4.4,0-7-2.9-7-7.2C145.2,755.8,156.2,754.3,162.2,753.6z"/>
	
		<path id="path4221" inkscape:connector-curvature="0" sodipodi:nodetypes="ccccccccccccscccccccccccccsccccsccscsccsscccsscssccccccscssccscssssccsccccssssccsssccssccscscssc" d="
		M340.5,705c-5.6,0.1-11.5,2.4-14.7,7.2c-2.7,4.1-2.5,9.8-2.5,14.5H317v12.2h6.3v40.9h15.8v-40.9h9.7v-12.2h-9.7v-1.2
		c0-4.6,0-8.3,5.7-7.9l5.4,0.3v-12.1l-7.3-0.6C342,705,341.3,705,340.5,705z M377,724.1c-6,0.2-8.9,5.9-10.5,11.3h-0.2v-10.2h-14.7
		v54.5h15.8v-20.8c0-9.7,1.5-19.4,13.5-18.8v-15.8l-2.7-0.2C377.8,724.1,377.4,724.1,377,724.1z M409.8,724.1
		c-11.5,0-24.4,3.9-26,17.1l14.9,1.4c0-5.4,4.4-7.9,9.4-7.9c2.4,0,5,0.8,6.4,2.6c1.6,2,1.4,4.8,1.4,7.2v1.3
		c-6.7,0.6-15.4,1.1-21.6,3.4c-7.2,2.7-12.2,8.2-12.2,16.2c0,10.3,7.5,15.5,17.2,15.5c8.2,0,12.9-3.1,17.4-9.6
		c-0.1,2.8,0.1,5.7,0.8,8.5h15.7c-0.9-2.7-1.1-5.4-1.1-8.2v-25.4c0-6.5,0.5-12.6-5-17.1C422.7,725.5,415.4,724.1,409.8,724.1z
		 M470.4,724.1c-7.9,0-12.5,3.3-15.7,10.3h-0.2v-9.2h-14.9v54.5h15.8v-29.3c0-3.4,0.2-6.6,1.8-9.7c1.3-2.5,3.9-4.1,6.7-4.1
		c7.9,0,7.2,8.2,7.2,13.7v29.3h15.8v-33.7c0-4.9,0-11.8-3-15.9C480.6,725.8,475.5,724.1,470.4,724.1z M573.8,724.1
		c-17,0-26.5,13-26.5,29.1c0,16.2,10.6,27.6,27,27.6c18.5,0,24.8-16.1,24.8-18.8l-14.6-1.1c0,5-4.8,8.6-9.7,8.6
		c-6.9,0-10.5-5.3-10.5-11.7l0.1-2.7h35c0.1-7.4-1.1-15.1-5.6-21.4C589.2,727.5,581.4,724.1,573.8,724.1z M519.7,724.1
		c-17.2,0-27.3,12.1-27.3,28.9c0,16.1,9.8,27.8,26.3,27.8c13.3,0,23.5-8.1,24.8-21.6l-15-0.9c-0.5,5-3.3,9.4-8.9,9.4
		c-9,0-9.1-9.4-9.1-16.1c0-7,1.1-15.6,9.8-15.6c5.7,0,8.3,4.8,8.3,9.8l15-0.9C542.4,732.3,532.3,724.1,519.7,724.1z M574.4,734.5
		c6.9,0,8.8,5.5,9.1,11.4h-19.3C564.7,739.6,567.4,734.5,574.4,734.5z M416,753.6v2.1c0,3.9,0.1,7.1-2.1,10.5
		c-1.8,2.8-4.7,4.5-7.9,4.5c-4.4,0-7-2.9-7-7.2C399,755.8,410,754.3,416,753.6z"/>
</g>
</svg>
